<svg width="63" height="63" viewBox="0 0 63 63" fill="none" xmlns="http://www.w3.org/2000/svg">
<path d="M59.7588 18.9911L51.8838 11.1161C51.699 10.9314 51.4485 10.8276 51.1873 10.8276C50.9261 10.8276 50.6756 10.9314 50.4909 11.1161C50.3062 11.3008 50.2024 11.5513 50.2024 11.8126C50.2024 12.0738 50.3062 12.3243 50.4909 12.509L56.685 18.7032H47.2498C44.9791 18.7866 42.7475 19.3194 40.684 20.2708C37.5513 21.7178 33.5842 24.8112 32.4965 31.345C30.919 40.8172 23.2606 42.1412 20.6126 42.3134C20.361 40.0631 19.2574 37.9946 17.5283 36.5326C15.7992 35.0706 13.576 34.3262 11.3152 34.4521C9.05435 34.5781 6.92759 35.565 5.37166 37.2101C3.81572 38.8551 2.94873 41.0335 2.94873 43.2978C2.94873 45.5621 3.81572 47.7405 5.37166 49.3855C6.92759 51.0306 9.05435 52.0175 11.3152 52.1434C13.576 52.2694 15.7992 51.525 17.5283 50.063C19.2574 48.601 20.361 46.5325 20.6126 44.2822C22.5406 44.1561 24.4319 43.6947 26.2014 42.9188C29.3342 41.5284 33.3037 38.4473 34.4332 31.6699C36.2445 20.8368 46.8019 20.6719 47.2498 20.6719H56.685L50.4909 26.8661C50.3062 27.0508 50.2024 27.3013 50.2024 27.5626C50.2024 27.8238 50.3062 28.0743 50.4909 28.259C50.6756 28.4437 50.9261 28.5475 51.1873 28.5475C51.4485 28.5475 51.699 28.4437 51.8838 28.259L59.7588 20.384C59.8503 20.2926 59.9229 20.184 59.9724 20.0645C60.022 19.945 60.0475 19.8169 60.0475 19.6876C60.0475 19.5582 60.022 19.4301 59.9724 19.3106C59.9229 19.1911 59.8503 19.0825 59.7588 18.9911ZM11.8123 50.2032C10.4495 50.2032 9.11724 49.7991 7.98408 49.0419C6.85093 48.2848 5.96774 47.2086 5.4462 45.9495C4.92467 44.6904 4.78821 43.3049 5.05409 41.9683C5.31996 40.6316 5.97623 39.4038 6.9399 38.4402C7.90357 37.4765 9.13137 36.8202 10.468 36.5543C11.8047 36.2885 13.1901 36.4249 14.4492 36.9465C15.7083 37.468 16.7845 38.3512 17.5417 39.4843C18.2988 40.6175 18.7029 41.9497 18.7029 43.3126C18.7029 45.1401 17.977 46.8927 16.6847 48.185C15.3925 49.4772 13.6398 50.2032 11.8123 50.2032Z" fill="black"/>
</svg>
