<svg xmlns="http://www.w3.org/2000/svg" xmlns:xlink="http://www.w3.org/1999/xlink" id="Layer_1" data-name="Layer 1" viewBox="0 0 675.7 135.3"><defs><style>      .cls-1 {        filter: url(#drop-shadow-1);      }      .cls-1, .cls-2, .cls-3, .cls-4, .cls-5, .cls-6, .cls-7, .cls-8, .cls-9 {        stroke-width: 0px;      }      .cls-1, .cls-7, .cls-10 {        fill: #6d00e7;      }      .cls-2 {        fill: #000;      }      .cls-3 {        fill: #85cddb;      }      .cls-4 {        fill: #a6a8ab;      }      .cls-5 {        fill: none;      }      .cls-11 {        clip-path: url(#clippath);      }      .cls-6 {        fill: #0097ba;      }      .cls-8 {        fill: #606060;      }      .cls-9 {        fill: #a5d867;      }    </style><clipPath id="clippath"><path class="cls-7" d="M453.3,49.3c-4.7,4.8-7.2,11.1-8.3,13.9-.2.4-.3.8-.5,1.4-1,2.5-2.4,6.2-4.2,9.2-1,1.6-2.9,4-4.6,3.8-1.1-.1-2.3-1.4-3.6-6.4-.7-2.5-1-5.1-1.2-6.5.7-.4,1.5-.7,2.2-1.1,5.1-3,5.7-6.5,5.5-8.3-.2-2.4-1.7-4.5-3.7-5.3-1.5-.6-4-.6-6.2,1.1-2.5,2-3.6,5.4-3.3,10.3-11.7,4-25.1.6-33.1-2.2-6.7-2.1-7.9,2.4-7.9,2.4,2.6,1.2,8.3,3.6,15.5,5.2,9.7,2.2,18.6,2.1,26.1-.2.2,1.6.6,3.7,1.2,5.8,1.7,6.6,4.3,10,7.8,10.5.3,0,.7,0,1,0,7.1,0,11.2-10.7,13.5-16.5.2-.5.4-.9.5-1.3,1.1-2.7,6.8-16.1,15.3-16.5.1,0-1.2-1.6-3.5-2.1-4.3-1-7.6,2.1-8.2,2.7ZM430.9,56.6c.4-1.1,1-2.1,1.9-1.7.8.4.6,1.3,0,2.2-.6.8-1.6,1.5-2.3,1.9,0,0,0-1.2.4-2.4Z"></path></clipPath><filter id="drop-shadow-1" filterUnits="userSpaceOnUse"><feGaussianBlur stdDeviation="6.6"></feGaussianBlur></filter></defs><g><path class="cls-2" d="M138.9,82.9v-13h-12.2v13h-5.4v-29.8h5.4v11.7h12.2v-11.7h5.4v29.8h-5.4Z"></path><path class="cls-2" d="M150,82.9v-29.8h20.4v4.9h-14.9v6.9h13v4.9h-13v8.2h14.9v4.9h-20.4Z"></path><path class="cls-2" d="M192.3,82.9l-6.7-10.9-6.7,10.9h-5.8l9.4-15.2-9.3-14.6h5.9l6.7,10.4,6.5-10.4h5.9l-9.2,14.7,9.3,15.1h-6Z"></path><path class="cls-2" d="M219.8,82.9l-1.9-5.7h-11.9l-1.9,5.7h-5.5l10.5-29.8h5.9l10.5,29.8h-5.7ZM211.9,59.7l-4.2,12.6h8.5l-4.2-12.6Z"></path><path class="cls-2" d="M249.9,82.9l-3.1-3.3c-.9,1.7-3.7,3.8-7.5,3.8-3.4,0-6.5-.8-8.9-3.3-3.1-3.2-3.9-7.2-3.9-12.1s.6-8.7,3.9-12c2.3-2.3,5.7-3.5,8.9-3.5s6.8,1.4,8.8,3.4c1.5,1.5,2.6,3.4,2.7,6h-5.6c0-1.2-.7-2-1.3-2.7-1-1.2-2.7-1.8-4.8-1.8s-3.7.8-4.9,2c-2.1,2.1-2.3,5.9-2.3,8.6s.3,6.6,2.4,8.7c1.2,1.3,3.1,1.9,4.8,1.9s3.4-.7,4.5-1.7c1.6-1.7,1.9-3.5,1.9-5.8h-7.1v-4.5h12.4v16.3h-1Z"></path><path class="cls-2" d="M276.2,80c-2.3,2.3-5.4,3.4-8.6,3.4s-6.3-1.1-8.6-3.4c-3.2-3.2-3.8-7.2-3.8-12.1s.5-8.9,3.8-12.1c2.3-2.3,5.4-3.4,8.6-3.4s6.3,1.1,8.6,3.4c3.2,3.2,3.8,7.2,3.8,12.1s-.6,8.8-3.8,12.1ZM272.3,59.4c-1.2-1.3-3-2-4.7-2s-3.5.7-4.7,2c-2.1,2.1-2.1,5.9-2.1,8.6s0,6.4,2.1,8.5c1.2,1.3,3,2,4.7,2s3.5-.7,4.7-2c2.1-2.1,2.1-5.8,2.1-8.5s0-6.4-2.1-8.6Z"></path><path class="cls-2" d="M302.4,82.9l-12.9-20.5v20.5h-5.3v-29.8h5.8l12.7,20.2v-20.2h5.3v29.8h-5.6Z"></path><g><polygon class="cls-5" points="61.8 89.5 61.8 111.4 74.4 89.5 61.8 89.5"></polygon><polygon class="cls-5" points="36.5 67.6 23.8 89.5 42.8 78.6 36.5 67.6"></polygon><polygon class="cls-3" points="23.8 89.5 49.1 89.5 42.8 78.6 23.8 89.5"></polygon><polygon class="cls-3" points="74.4 89.5 99.7 45.7 61.8 67.6 61.8 89.5 74.4 89.5"></polygon><polygon class="cls-9" points="61.8 111.4 99.7 89.5 74.4 89.5 61.8 111.4"></polygon><polygon class="cls-9" points="42.8 78.6 61.8 67.6 61.8 23.8 36.5 67.6 42.8 78.6"></polygon><polygon class="cls-9" points="49.1 89.5 61.8 111.4 61.8 89.5 49.1 89.5"></polygon><polygon class="cls-3" points="23.8 45.7 23.8 89.5 36.5 67.6 23.8 45.7"></polygon><polygon class="cls-6" points="99.7 45.7 74.4 89.5 99.7 89.5 99.7 45.7 99.7 45.7"></polygon><polygon class="cls-6" points="61.8 67.6 42.8 78.6 49.1 89.5 61.8 89.5 61.8 67.6"></polygon><polygon class="cls-6" points="61.8 23.8 23.8 45.7 36.5 67.6 61.8 23.8"></polygon></g></g><g><g><path class="cls-10" d="M453.3,49.3c-4.7,4.8-7.2,11.1-8.3,13.9-.2.4-.3.8-.5,1.4-1,2.5-2.4,6.2-4.2,9.2-1,1.6-2.9,4-4.6,3.8-1.1-.1-2.3-1.4-3.6-6.4-.7-2.5-1-5.1-1.2-6.5.7-.4,1.5-.7,2.2-1.1,5.1-3,5.7-6.5,5.5-8.3-.2-2.4-1.7-4.5-3.7-5.3-1.5-.6-4-.6-6.2,1.1-2.5,2-3.6,5.4-3.3,10.3-11.7,4-25.1.6-33.1-2.2-6.7-2.1-7.9,2.4-7.9,2.4,2.6,1.2,8.3,3.6,15.5,5.2,9.7,2.2,18.6,2.1,26.1-.2.2,1.6.6,3.7,1.2,5.8,1.7,6.6,4.3,10,7.8,10.5.3,0,.7,0,1,0,7.1,0,11.2-10.7,13.5-16.5.2-.5.4-.9.5-1.3,1.1-2.7,6.8-16.1,15.3-16.5.1,0-1.2-1.6-3.5-2.1-4.3-1-7.6,2.1-8.2,2.7ZM430.9,56.6c.4-1.1,1-2.1,1.9-1.7.8.4.6,1.3,0,2.2-.6.8-1.6,1.5-2.3,1.9,0,0,0-1.2.4-2.4Z"></path><g class="cls-11"><g><path class="cls-1" d="M420.5,62.6s5.6-.8,10.7-4l1.7,5.1s-4.2,2.6-10.5,3.9l-1.8-4.9Z"></path><polygon class="cls-7" points="435.6 48.3 430.9 58.2 432.8 64.1 445 56.3 435.6 48.3"></polygon><polygon class="cls-7" points="422.6 61.7 406.8 61.5 404.9 70.2 423 68 422.6 61.7"></polygon></g></g></g><g><path class="cls-8" d="M481.7,58.6c-.6-.1-1.9-.1-2.8,2l-4.9,13-4.9-13c-.8-2.1-2.2-2.1-2.8-2-.7.1-1.6.7-1.6,1.4h0c0,0,7.3,18.5,7.3,18.5h3.9l7.3-18.3v-.2c0-.6-.7-1.2-1.5-1.4Z"></path><path class="cls-8" d="M501.2,58.2c-5.9,0-10.2,4.3-10.2,10.3s4.3,10.4,10.2,10.4,10.2-4.3,10.2-10.3-4.3-10.4-10.2-10.4ZM507.5,68.6c0,3.9-2.6,6.7-6.2,6.7s-6.3-2.9-6.3-6.8,2.6-6.7,6.3-6.7,6.2,2.9,6.2,6.8Z"></path><path class="cls-8" d="M529.3,73.4l-6.1-14.7h-4.1l7.4,17.5c.3.7.7,1.1,1.2,1.2l-2.8,7.1c0,.2,0,.5.1.7.3.4,1.1.9,1.8.9,1.1,0,1.9-.7,2.4-2.1l9.4-25.3h-4.1l-5.3,14.7Z"></path><path class="cls-8" d="M555.4,58.2c-4,0-6.2,1.8-7,2.6-.7.7-1.2,1.6-1.2,2.3s.5,1.5.9,1.8c.4.3.9.4,1.1.4s.5-.1.6-.4c1-2,2.9-3,5.3-3s4.5,1.4,4.5,4.2c-6.2.2-13.2,1.1-13.2,6.9s2.7,5.8,7,5.8,4.6-.8,6.2-2.2v1.7h3.8v-12.4c0-4.8-3.1-7.8-8.1-7.8ZM559.7,69.5v1c0,2.8-2.6,5-5.9,5s-3.3-.9-3.3-2.4,1.1-3.3,9.3-3.6Z"></path><path class="cls-8" d="M587.1,58.2c-2.2,0-4.2.8-5.7,2.2-.3-1.6-1.4-1.9-2.2-1.9s-1.5.3-1.5,1v19h3.9v-13.1c1.1-2.1,3-3.4,5.4-3.4s4.3,1.9,4.3,5.2v11.3h3.9v-11.4c0-5.5-3-8.8-8-8.8Z"></path><path class="cls-8" d="M616,66.7h0c-3.7-.8-4.6-1.3-4.6-2.6s1.5-2.4,4-2.4,3.8.9,4.8,2.4c.1.2.4.4,1,.3.6-.2,1.6-.8,1.6-2s-.4-1.4-1-2c-.8-.8-2.7-2.2-6.5-2.2s-7.7,2.5-7.7,6.2,4,5.2,7,5.8c3.9.8,4.9,1.2,4.9,2.7s-1.5,2.4-4.1,2.4-4.4-.9-5.8-2.7h0c-.3-.4-.8-.3-1.1-.1-.3.1-1.4.7-1.4,1.9s.3,1.3,1.1,2c1.5,1.5,4.2,2.4,7.2,2.4,4.8,0,7.9-2.5,7.9-6.3s-4.2-5.2-7.2-5.9Z"></path><path class="cls-8" d="M639,58.6h-.3c-1.1,0-1.8.7-1.8,1.9v18h3.9v-18c0-1.2-.7-1.9-1.8-1.9Z"></path></g></g><rect class="cls-4" x="346" y="22.5" width="1.5" height="89.7"></rect></svg>